<svg xmlns="http://www.w3.org/2000/svg" xml:space="preserve" viewBox="0 0 2090 1100"><path fill="#7fc8b2" d="m1023 129 3-1c4 1 6 4 10 7 3 9-3 12-10 12h-20c-18 0-30 2-81-2-16-2-20-3-20-4 0-3 14-7 26-9 18-2 18 2 46 2 16-1 39-2 46-5zM982 447c5-22-5-29-25-26h-35c-3 0-9 1-7-5 1-3 6-3 10-4 14-10 29-10 44 0 17-2 25 5 22 23v11c0 39 0 39 39 40v5l-32 1c-13 3-15-5-16-14-7-11-9-21 0-31z"/><path fill="#e26d4f" d="M1250 121v99c-13-13-7-29-10-42-5-19-6-39 1-57h9z"/><path fill="#64bba2" d="M770 173c-2 14 4 18 18 18 19-1 37 0 56 1-12 12-25 1-37 4h-20c-22 6-25-5-21-23h4z"/><path fill="#64bea4" d="M56 675c0-14-2-28 0-42 2-21-4-31-27-28v-5c32 0 31 0 33 30 0 14-3 28 2 41 1 7-2 7-8 4z"/><path fill="#e1512a" d="M562 106c-11 4-7-6-7-10V23h4l3 83z"/><path fill="#d1c758" d="M2072 1089c-7 2-10 1-7-7 6-14 18-21 34-22v8c-15 1-23 8-27 21z"/><path fill="#ceba43" d="m74 215 39-9c-10 15-24 16-39 14v-5z"/><path fill="#64c3a9" d="m1749 529 5 8c12 38-2 68-35 70-21 2-38-6-46-26-8-18-7-37 9-52 16-16 36-18 56-7l11 7z"/><path fill="#df5f46" d="m245 895 22 1c68 17 76 87 42 122-12 13-26 28-48 18 28-8 51-21 58-52 7-29-6-57-30-71a68 68 0 0 0-76 5c-5 5-8 13-16 13 6-25 29-28 48-36z"/><path fill="#dc6044" d="M1861 889c7-4 11-14 21-15 5 1 7 4 8 9l10 11c8 11 15 12 26 1 20-22 22-22 43 0 10 11 16 10 25-1 6-7 12-15 23-19-2 15-17 19-21 29l-4 4c-7 5-11 9-20 1-27-25-28-25-54 4-12 4-17-7-22-13-13-18-24-14-35 1-5 5-9 12-19 13 2-12 15-16 19-25z"/><path fill="#85c6b3" d="m1322 92 5-17c38-45 84-51 119-15 20 20 27 44 17 72-4 0-7-1-5-6 2-53-26-86-71-81-32 3-48 25-60 53l-5-6z"/><path fill="#8dccb8" d="M277 312c-11-1-12-2-10-4 12-9 7-23 6-34-1-16 6-20 21-20 33 0 33 0 31-34 0-12 5-19 17-17 14 1 28-4 41 8h-33c-12-1-17 4-15 15v11c3 21-5 30-26 27-9-2-18 0-27 0-7 16 2 33-5 48z"/><path fill="#d5bf53" d="M992 329c-23-21-28-49-11-73 16-23 44-28 77-14 18 17 28 37 18 62-5-4-6-9-8-14l-6-21a41 41 0 0 0-55-18c-19 10-27 32-18 52 3 7 9 13 10 22-1 3-2 6-7 4z"/><path fill="#66baa1" d="M1601 962v-31l1-15c2-16-4-21-19-20h-46l-8-5h71c8 0 9 5 9 12l1 32c-4 20 2 30 24 27 15-2 31 0 46 0v13c-2 2-3 2-4 0-17-11-35-3-52-5-9-2-18 2-23-8z"/><path fill="#df5a43" d="m717 703-31 27c-9 7-8 12 0 19 10 10 19 20 27 32-13-5-22-16-31-25-8-9-13-10-22 0-9 9-17 21-33 23 9-10 18-20 28-28 11-9 9-15-1-23s-19-17-28-32c17 6 24 18 32 26 9 9 16 13 25 0 8-9 18-17 28-26l6 7z"/><path fill="#95cfbc" d="m535 477 28 28c7 7 13 8 20 0l26-32 7 8-29 29c-7 7-8 12 0 19 11 8 21 17 29 29-16-1-23-14-32-23-7-8-13-9-21-1-9 11-19 20-32 33 0-16 11-20 17-27 21-21 21-20 0-40l-20-17 7-6z"/><path fill="#86c5b2" d="m1458 126 5 6c-9 29-29 46-60 50-28 4-52-6-69-29-6-8-15-17-7-29 13 27 29 49 62 51 36 3 56-18 69-49z"/><path fill="#4b1e14" d="m1019 736 1-5h149v150c-8-4-14-7-13-16 6 3 9 1 9-6V747c0-8-3-12-11-11h-112c-7 0-11 2-13 9-5-1-7-6-10-9z"/><path fill="#ea4c22" d="M530 658c4 10 4 20 0 30-20 10-35 6-39-9-2-9 0-17 7-22 11-8 21-6 32 1z"/><path fill="#d7bd55" d="m1140 381 13-4c6-5 12-5 18 0 11-10-1-31 17-39l1 9c1 37 1 37 38 30 2 14-9 10-14 9-21-3-27 6-24 25l-1 18c-7-2-8-8-7-14 4-25-7-32-30-29-4 1-9 0-11-5z"/><path fill="#95cfbc" d="M431 384c-3-12 4-11 12-12 44-3 44-3 39-49 15-14 33-6 50-8 4 2 8-7 12 0-6 15-19 8-28 7-21 0-30 6-25 27 2 9 1 18 2 26l-1 3h-2c-18 1-36-3-52 5-2 4-5 4-7 1z"/><path fill="#614b41" d="m521 926-8-2c-14-19-26-14-37 3-1-8-2-9 6-15 8-7 8-12 0-18-13-11-25-21-34-34 14-1 19 10 27 17 21 21 21 21 42 0l22-22 6 6c-10 9-19 19-30 27-13 10-15 19 0 29l6 9z"/><path fill="#d8c15b" d="M1216 548c-30-11-29 15-35 32l-2-4c0-19-4-33-28-30-2 0-3-2-5-4 3-4 7-3 10-3 16 2 24-3 21-21 0-6 2-10 9-10-3 22 2 37 28 32 2-1 5 2 7 4l-5 4z"/><path fill="#684232" d="M1416 807c7-7 15-10 25-9 9 8 15 16 9 28-5 9-13 12-23 8-13-5-13-15-11-27z"/><path fill="#e36a52" d="M765 507c-18-18-34-22-49 2 0-15 15-19 14-27 0-9-13-13-16-27 17 19 33 24 51 0-17 19-25 34 0 52z"/><path fill="#d7c35d" d="M1463 667c17-3 24-19 36-29 6-5 1-10-4-14-8-9-18-17-24-28 20 3 28 22 41 34 3 2 0 7-2 9l-46 45c-2 2-5 0-5-3 4-4-1-10 4-14z"/><path fill="#6abca3" d="m1310 794-1-22 1-31c-1-4 0-6 4-5l3 4c1 15-3 34 4 44 7 11 27 4 41 5 8 0 9 5 9 11l1 41c1 5 0 7-5 5-6-16 8-40-6-49-12-8-34-3-51-3z"/><path fill="#e2725b" d="m1695 164 72-73 6 6-73 72c-3 0-5-2-5-5z"/><path fill="#8acdb9" d="M968 649h-61c-4-1-13 2-11-6 2-6 10-2 16-4 27-2 55-3 83 1 5 5 3 8-4 9h-23z"/><path fill="#dac664" d="M1474 333c-1-16-9-23-29-21 12-9 29-7 22-24l6-3c3-1 6 1 5 4-3 16 12 14 23 21-17 1-25 8-27 23z"/><path fill="#da7661" d="m1753 289 8-8c1-2 2-3 4-3l7 3 2 4c-24 17-42 42-69 64 5-22 24-28 30-43 2-10 10-13 18-17z"/><path fill="#7dc7b2" d="M530 214c-8 2-18-1-16-8 5-12-6-24 4-34 2-2 7-2 10-1 5 2 8 8 6 13-4 6-3 12 1 17l-5 13z"/><path fill="#8cceb8" d="M1695 787c-3 3-8 4-8 0 0-31-7-62 3-93 3 2 6 4 8 8 5 23 2 46 2 69-1 6-5 10-5 16z"/><path fill="#5a4742" d="m689 572 26-27 13-13 9-4c7 1 10 7 13 13l21 22c-12 2-13-9-21-9-11 2-8-9-13-13-12-1-14 12-22 17-2 11-11 13-18 18l-13 9-2-2 7-11z"/><path fill="#88c7b4" d="M671 48h5c2 2 4 5 2 7-10 10-16 20 3 32-16-11-29-8-45 5 15-23 15-23 2-44 12 3 24 24 33 0z"/><path fill="#d3bf4c" d="m315 552-3-14c3-4 7-8 12-3l13 12c28 28 28 28-5 52l-6 2c-6-7 0-11 3-15 14-19 14-19-6-33l-8-1z"/><path fill="#c4ae35" d="m551 453-1-1c2-5 3-10 7-13 15-13 10-22-4-31-4 0-5-2-5-6 2-2 5-5 7-2 15 17 28 20 43-2 0 12-11 17-15 24-1 4-4 7-8 8l-24 23z"/><path fill="#61be9f" d="M1445 535h76c-8 11-19 6-27 9-2 3-3 3-5 0h-68v-7l24-2z"/><path fill="#81c5af" d="m255 711 5-3c9 13 20 19 37-1-12 25-12 25-2 41-13-10-25-15-39 4 15-17 12-29-1-41z"/><path fill="#66c1a6" d="m460 801-87-1c29-14 59-7 88-6 4 0 1 5-1 7z"/><path fill="#d85438" d="m1789 270 80 80-5 4-55-53c-11-6-22-12-24-26 0-3 2-4 4-5z"/><path fill="#64c3a9" d="M1912 397c-3 0-10 0-6-5 11-11 16-21-4-32 16 4 29 18 41-3-6 14-18 26 7 38-16 1-29-22-38 2z"/><path fill="#6f4e40" d="M568 373c-7 5-13 7-20 1s-8-14-2-21c7-7 15-6 21 1 6 6 5 13 1 19z"/><path fill="#6c4c3e" d="M405 242c-11 1-19-2-21-14-1-7 2-11 9-14 6-3 12-1 17 5 7 9 1 16-5 23z"/><path fill="#7dbba8" d="M1695 787c-6-4-1-7 0-11 21-27 43-54 74-71 2 0 3 1 5 3l-19 21-60 58z"/><path fill="#694838" d="M507 412c8 9 10 18-1 25-7 5-15 2-19-4-6-12 0-19 10-24 4-2 8-1 10 3z"/><path fill="#d85438" d="m1664 165-65-69 3-4 62 59c6 3 8 7 6 13-2 2-4 2-6 1z"/><path fill="#94cbba" d="M56 675c4 0 7-1 8-4h54c6 0 15-4 16 8l-4 1-74-1v-4z"/><path fill="#dcc35c" d="m1516 252 32-1c4-2 8-2 11 0l34 2c-9 12-23 4-34 7-3 3-7 3-10 0-11-4-25 7-33-8z"/><path fill="#d6c45b" d="m992 329 5-4c22 3 44 2 64-11 4 1 6 3 7 7-21 26-47 24-74 12l-2-4z"/><path fill="#abadac" d="M1167 1046c-14-2-26-3-39-1-5 1-9-1-9-6 1-6 5-4 9-4 15 0 31 0 45-2 7-1 8 4 8 6-1 12-10 3-14 7z"/><path fill="#d95f43" d="M189 981c9 25 24 45 52 52 4 1 3 4 3 7-29-4-47-21-58-48-2-5-1-8 3-11z"/><path fill="#5d4b48" d="M776 571c19 11 22-10 31-16 7-3 11-8 14-14 5-7 6-19 20-13l6 8c2 2 3 4 2 7-7-5-14-8-19 3-3 6-8 10-14 12l-20 20c-11 10-17 6-20-7z"/><path fill="#e36a52" d="M838 479c-9 7-27 6-23 30-10-12-4-34-28-25 16-4 23-11 23-26 6 13 11 25 28 21z"/><path fill="#80c0ae" d="m429 725-39 1c-5-5-3-9 2-9h64c-10 11-19 6-27 8z"/><path fill="#d9c75c" d="M2000 561c-12-1-10-13-15-19-9-14-26-15-36-27 30 1 45 14 51 46z"/><path fill="#d1c350" d="M1886 446c11 18 9 33 2 49-12-16-10-31-2-49z"/><path fill="#8bcdb8" d="M1550 340c-2 34-3 35-36 27 24-13 24-13 32-32 1 2 4 2 4 5z"/><path fill="#d6c358" d="M1936 520a75 75 0 0 0-38 44c-6-5-3-9-4-13 6-14 15-25 29-32 4-3 9-5 13 1z"/><path fill="#d2a914" d="M1463 667c-1 5 2 11-5 14v-85c0-5-3-12 4-13 4-1 8 4 9 10-10 2-7 11-8 17v57z"/><path fill="#64b99f" d="m1774 708-7-1c-15-5-30-1-45-2-9-1-19 1-27-6l-5-5 83-1c7 0 12 1 9 10l-8 5z"/><path fill="#7abba7" d="m1314 736-4 5h-51v-7c19-1 37-5 55 2z"/><path fill="#95cfbc" d="M544 315h-12c9-13 2-27 3-41 1-7 0-15 10-5v5c5 9 5 17 1 26l-2 15z"/><path fill="#76c4aa" d="m1742 865 4-5h52c-4 12-12 7-17 9h-26c-4-1-10 1-13-4z"/><path fill="#67bca5" d="m999 617-101 2c-4-5-1-7 3-7l91 1 7 4z"/><path fill="#5d4a41" d="M791 1020c-12-4-17-15-26-20-9 4-13 17-25 19 19-34 29-34 51 1z"/><path fill="#66bba0" d="M894 627h105c-25 11-51 3-77 5-9 0-20 5-28-5z"/><path fill="#d63a0a" d="M1142 355c1 2 2 2 3 2-34 10-68 0-102 5l-1-7h100z"/><path fill="#c6b132" d="M285 611h7c-6 5-8 19-19 8 6-18-2-37 3-55l5-6c12 17 4 36 4 53z"/><path fill="#92d0bd" d="m431 384 7-1c2 17 3 33 0 54-11-16-5-31-9-44l2-9z"/><path fill="#65b49f" d="M1318 646h97v3h-97v-3z"/><path fill="#dc2f06" d="M938 580v-95h3v94l-3 1z"/><path fill="#6e5040" d="M1809 1019c1 8 3 17-9 17-6 0-11 0-13-6-2-10 4-14 13-16l9 5z"/><path fill="#664339" d="M1022 519c-1 7-4 12-11 12-8 1-13-2-13-11 0-6 3-11 10-11 8-1 12 4 14 10z"/><path fill="#e3674b" d="M1118 299c6 1 11 4 10 12 0 6-5 9-10 8-7 0-11-4-10-11 1-5 5-9 10-9z"/><path fill="#d3c44e" d="M1982 611c-4 1-14 0-11-2 12-9 14-26 29-33 0 15-11 24-18 35z"/><path fill="#614c44" d="M1407 436c-3 22-16 33-37 37 14-10 29-20 37-37z"/><path fill="#b3b4b4" d="M967 1037c-3 19-18 3-26 9-5 0-12 0-11-7 0-5 7-7 12-6 8 3 16 7 25 4z"/><path fill="#6cc1a9" d="M513 232c-1-13 8-15 17-15 5 6 6 12 0 17-6 6-12 1-17-2z"/><path fill="#634f45" d="m838 1015 25-22c4-3 7-2 9 2 2 2 2 6-2 6-13 0-15 16-27 18l-5-4z"/><path fill="#dbc871" d="M783 351v-10c11 4 26-6 34 8l-30 3-2-1h-2z"/><path fill="#da7d76" d="M1708 1053c7 10 7 20 0 35-5-15-5-25 0-35z"/><path fill="#999" d="m1046 1046-31-1c5-9 15-6 19-12a24915 24915 0 0 1 18 10l-1 2-5 1z"/><path fill="#a6a6a6" d="M915 1039c-13 0-24 11-42 3 16-8 29-6 42-3z"/><path fill="#97c9b8" d="m1606 312-29 2c-3 0-3-4-5-5 12-7 24-11 34 4v-1z"/><path fill="#d9c76d" d="M1549 260h10c-2 10 2 20-4 32-9-11-4-22-6-32z"/><path fill="#fdfdfc" d="M857 382c29 0 29 0 22-26 12 6 12 18 7 25-7 9-19 8-29 1z"/><path fill="#64bda2" d="m277 312 2-48 1-1 2 1-1 51-4-3z"/><path fill="#71af9c" d="m1572 309 5 5c3 21-6 30-27 26l-4-5c19 2 29-6 26-26z"/><path fill="#7c6052" d="M876 766v2c1 6 10 11 2 18-3 2-7 2-10 0-9-8 1-13 3-19 1-2 3-2 5-1z"/><path fill="#725c54" d="M1330 468c-8-2-13-10-15-21l15 21z"/><path fill="#afafaf" d="M967 1033c9 2 19 0 29 8-12 4-22 9-29-4v-4z"/><path fill="#645149" d="m1329 387-18 33c-1-19 6-28 18-33z"/><path fill="#735e51" d="M1359 375c17 1 23 6 33 16-14-2-21-7-33-16z"/><path fill="#d85438" d="M1668 190c6-7 11-14 4-23h6l4 5c4 4 5 8 4 13l-11 10c-3 0-6-2-7-5z"/><path fill="#6d524a" d="M1401 606c0-10 4-14 13-13 2 5 7 8 2 14s-10 2-15-1z"/><path fill="#b24731" d="m1686 185-4-13c6 0 9-5 13-8l5 5-8 11-2 7-4-2z"/><path fill="#d6c64d" d="m1068 321-5-5c-4-11 2-19 9-26 5 3 4 9 4 14-1 6-3 12-8 17z"/><path fill="#e5583f" d="M197 931c1 10-5 19-9 28-8-13-1-21 9-28z"/><path fill="#5cb89e" d="M1722 1042h4v39c-6-12-5-26-4-39z"/><path fill="#5e4031" d="m876 766-5 1c-7-2-7-7-4-12 3-4 7-4 11-1 4 4 5 9-2 12z"/><path fill="#604131" d="M1668 428c-4 0-7-2-7-6 0-5 3-8 8-9 4 0 6 3 7 7 0 5-3 8-8 8z"/><path fill="#9d9d9d" d="M1051 1045v-4l4-5c3 8 9 3 12 2 7-1 11-1 10 8l-26-1z"/><path fill="#64c4a9" d="M145 428c1-17 1-33 19-41 13-6 26-5 38 2 15 9 14 24 15 39-22 36-50 36-72 0z"/><path fill="#d5be4f" d="M1017 904c5-3 10 0 13 4 17 15 33 31 48 50-41 6-82 8-122 1 7-10 15-20 26-26l3 5c-1 10 4 12 13 12 17-1 34 1 53-1-9-15-25-24-34-39v-6z"/><path fill="#694636" d="M138 616c11 15 6 27-9 36-17-1-30-8-24-27 5-17 19-17 33-9z"/><path fill="#dac55e" d="M1991 233c27-7 31-30 36-52 12 18-1 33-8 48l-13 9c-6 0-12 4-15-5z"/><path fill="#e55630" d="M166 225c1 11-5 16-13 16-9 1-13-5-13-14 0-7 4-12 12-12 9-1 13 4 14 10z"/><path fill="#d5c560" d="M295 71c0 12-22 6-16 25-5-12-11-18-22-21 22-11 24-11 34-5l4 1z"/><path fill="#c8ba4d" d="M1949 177c-7 25-2 38 19 52l9 9c-34-6-47-33-33-66 4-1 7 0 5 5z"/><path fill="#ccb739" d="M1997 76c10 1 12 11 19 15 10 7 8 14 0 21-6 5-10 14-19 16-4-5-3-10 0-14 10-8 10-16 0-24-3-5-4-9 0-14z"/><path fill="#d7cb66" d="m2028 181-38-31c22-1 34 10 38 31z"/><path fill="#dac46c" d="M1997 76c0 5 0 10 5 14 5 8 5 16 0 24-6 3-5 9-5 14-7-17-8-35 0-52z"/><path fill="#dfca6d" d="m1949 177-5-5c7-13 14-27 33-17-11 5-22 11-28 22z"/><path fill="#cfb339" d="M982 940v-7l22-26c4-1 8-6 13-3v1c-6 17-18 29-35 35z"/><path fill="#db5a3f" d="M1332 923c17-23 17-23 3-51 17 22 32 21 47-3 1 18-18 20-16 33 1 4-1 6-3 8-12 3-16 21-32 13h1z"/><path fill="#de6845" d="M934 858c7-5 11-15 25-18-20 17-23 33 7 48h-14c-11-15-23-20-36-2-2 3-6 3-9-1l21-20c-1-5 1-8 6-7z"/><path fill="#ddc566" d="M155 166c-13 8-10-3-10-8l-1-54c5-4-7-19 10-14 0 7 8 10 6 17-1 15 1 30-2 45 0 5-4 9-3 14z"/><path fill="#d1b942" d="M158 103c-1-4-15-5-4-13 14 13 28 25 38 40l-21 18-2-5c10-17-7-27-11-40z"/><ellipse cx="690.8" cy="279.3" fill="#d84e20" rx="68" ry="2.1"/><path fill="#d33404" d="M739 202h-99v-2h99v2z"/><path fill="#d64512" d="M636 252h104c-35 1-69 9-103 0h-1z"/><path fill="#d33204" d="M738 229h-96v-3h97l-1 3z"/><path fill="#e32f05" d="m165 743-1 92c-6-1-6-6-5-10 3-29-7-58 5-86l1 4z"/><path fill="#dac76e" d="M1378 1000v-37c13 11 8 25 9 37 2 2 2 4 0 6h-9v-6z"/><path fill="#d4c368" d="M1379 1005h8c1 1 2 2 1 3l-1 1c-4 13 9 30-9 39v-42l1-1z"/><path fill="#d45839" d="m1283 901-38 34c11-14 14-37 39-34h-1z"/><path fill="#d7ca79" d="m1379 1005-1 4h-37c11-13 25-7 37-9l1 5z"/><path fill="#d5c673" d="M1387 1009v-9h40c-10 18-27 4-40 9z"/><path fill="#e27357" d="m934 858-6 7c-7-8-22-10-19-26 12 2 17 13 25 19z"/><path fill="#d05637" d="M1283 901h1c-4-23 20-26 27-40l5 3-33 37z"/><path fill="#e5725c" d="m1362 906 4-4 12 9c2 4 7 8 5 13-10-2-23-1-21-18z"/><path fill="#97d1c0" d="M717 1007c-14-6-24-10-41-3-12 4-36 3-50 0-16-4-27-5-40 3 5-13 17-26 0-40-2-2-1-9 3-13l5 3c8 9 15 16 24 2 2-3 4-5 7-5 21 25 24 26 39 10 6-5 13-4 18-1 12 7 21 2 30-4 4 2 6 7 4 9-18 13-5 26 1 39z"/><path fill="#e25433" d="M913 77h91v3h-92l1-3z"/><path fill="#84c5b1" d="m622 940-4 5c-10-5-21 0-31 0v-5c12-11 7-21-3-33 14 9 27 13 40-1-8 12-18 23-2 34z"/><path fill="#79c1aa" d="M714 941c-10-5-19-20-31-3-3 4-4-3-4-6 18-9 7-17-5-27 13-2 16 10 22 8s11-7 20-11c-16 13-9 26-2 39z"/><path fill="#d84415" d="M928 64h127l3 3c-41 5-83 2-125 2-3 0-5-2-5-5z"/><path fill="#724f45" d="M1305 386c-2 8-5 13-13 12-7 0-11-6-11-12 0-7 5-12 13-11 7 1 10 5 11 11z"/><path fill="#d12709" d="M1173 166c-5-20-5-39 0-58v58z"/><path fill="#cdbd3a" d="M171 143v5c-3 8-10 13-16 18-7-4-5-7 0-10 3-7 6-15 16-13z"/><path fill="#ed532b" d="m1976 1043-18-1c-23-1-23-1-12-24 16-12 32-15 48 0 6 5 11 12 8 19s-10 3-15 4l-11 2z"/><path fill="#d5bc4b" d="M1898 578c11 17 22 33 50 38-30 4-46-10-50-38z"/><path fill="#e54c23" d="M1909 839c8-1 17-4 17 9 1 6-3 10-9 9-12-1-9-10-8-18z"/><path fill="#d9c55f" d="M1559 251h-11c3-9-1-20 5-31 9 10 3 22 6 31z"/><path fill="#d33c07" d="m135 723-1 92-5 7c3-36-6-67 6-99z"/><path fill="#91d2be" d="M1896 1034c-11-9-21-6-33 2 3-13 9-21 17-21s14 8 16 19z"/></svg>