<?xml version="1.0" encoding="utf-8"?>
<!-- Generator: Adobe Illustrator 26.0.3, SVG Export Plug-In . SVG Version: 6.00 Build 0)  -->
<svg version="1.1" id="Layer_1" xmlns="http://www.w3.org/2000/svg" xmlns:xlink="http://www.w3.org/1999/xlink" x="0px" y="0px"
	 viewBox="0 0 144 100.8" style="enable-background:new 0 0 144 100.8;" xml:space="preserve">
<g>
	<path d="M57.16,24.39c3.77,0,6.73,1.1,8.87,3.31c2.14,2.21,3.21,5.27,3.21,9.2c0,3.91-1.07,6.97-3.21,9.18
		c-2.14,2.21-5.09,3.31-8.87,3.31s-6.72-1.1-8.85-3.31c-2.12-2.21-3.18-5.27-3.18-9.18c0-3.93,1.06-6.99,3.18-9.2
		S53.38,24.39,57.16,24.39z M57.16,26.05c-3.15,0-5.61,0.96-7.39,2.87c-1.78,1.91-2.66,4.57-2.66,7.97c0,3.36,0.89,5.99,2.67,7.91
		c1.78,1.91,4.24,2.87,7.38,2.87s5.6-0.96,7.4-2.88c1.8-1.92,2.7-4.55,2.7-7.9c0-3.4-0.9-6.06-2.69-7.97S60.31,26.05,57.16,26.05z
		 M58.18,32.71v8.35c0,0.35-0.1,0.63-0.29,0.86c-0.19,0.23-0.44,0.34-0.73,0.34c-0.31,0-0.54-0.11-0.72-0.33
		c-0.17-0.22-0.26-0.51-0.26-0.87v-8.35c0-0.36,0.09-0.65,0.27-0.86c0.18-0.22,0.42-0.32,0.71-0.32c0.29,0,0.53,0.11,0.73,0.33
		S58.18,32.36,58.18,32.71z"/>
	<path d="M72.98,48.82V1.36h12.45v23.59h0.81c3.58,0,6.08,0.66,7.5,1.98s2.13,3.64,2.13,6.97v14.92H72.98z M74.93,47.16h8.53V32.23
		h0.25c0.54,0,0.95,0.1,1.24,0.31c0.28,0.21,0.43,0.51,0.43,0.9c0,0.06,0.01,0.17,0.02,0.34c0.01,0.17,0.02,0.32,0.02,0.43v12.95
		h8.47V33.73c0-2.69-0.53-4.55-1.58-5.58c-1.05-1.03-2.94-1.54-5.66-1.54h-3.18V3.02h-8.53V47.16z"/>
	<path d="M100.6,48.82V18.64h12.45v30.18H100.6z M102.55,25.03h8.53v-4.72h-8.53V25.03z M102.55,47.16h8.53V26.57h-8.53V47.16z"/>
	<path d="M140.93,1.36v47.47h-10.97c-2.65,0-4.67-0.19-6.06-0.56c-1.39-0.37-2.58-1-3.58-1.87c-1.17-1.01-2.05-2.35-2.66-4.01
		s-0.92-3.58-0.92-5.76c0-3.83,0.92-6.74,2.75-8.73s4.52-2.99,8.06-2.99c0.08,0,0.24,0.01,0.46,0.02c0.22,0.01,0.4,0.02,0.52,0.02
		V1.36H140.93z M138.96,3.02h-8.47v38.52h-0.33c-0.64,0-1.07-0.12-1.29-0.35c-0.22-0.24-0.33-0.78-0.33-1.64V26.61
		c-0.12,0-0.29-0.01-0.49-0.02s-0.35-0.02-0.45-0.02c-3.05,0-5.29,0.83-6.72,2.49c-1.43,1.66-2.14,4.27-2.14,7.84
		c0,1.65,0.23,3.16,0.68,4.52c0.45,1.36,1.09,2.46,1.93,3.31c0.86,0.89,1.89,1.52,3.09,1.88s3.04,0.55,5.51,0.55h9.03V3.02z"/>
</g>
<g>
	<path d="M45.13,99.41V50.47h41v48.93H45.13z M48.3,96.71h34.62V83.71H66.28v-2.7h16.64V68.02H66.28v-2.7h16.64V53.17H48.3V96.71z"
		/>
	<path d="M113.04,98.37h-12.41V74.35h-0.98c-3.54,0-6.22-0.99-8.06-2.98c-1.83-1.98-2.75-4.88-2.75-8.7c0-1.9,0.23-3.6,0.7-5.11
		c0.46-1.51,1.15-2.77,2.05-3.8c1.01-1.18,2.29-2.02,3.82-2.53c1.53-0.51,3.75-0.76,6.65-0.76h10.97V98.37z M111.06,96.71V52.14
		h-9.03c-2.47,0-4.31,0.18-5.51,0.55c-1.2,0.37-2.23,1-3.09,1.88c-0.83,0.82-1.47,1.91-1.93,3.29c-0.45,1.37-0.68,2.89-0.68,4.56
		c0,3.55,0.71,6.16,2.14,7.82c1.43,1.66,3.67,2.49,6.72,2.49c0.1,0,0.25-0.01,0.45-0.02c0.2-0.01,0.36-0.02,0.49-0.02V59.74
		c0-0.86,0.11-1.4,0.32-1.63c0.22-0.23,0.63-0.34,1.24-0.34h0.4v38.95H111.06z"/>
</g>
<g>
	<path d="M15.21,99.59V21.71H2.72V1.36h52.11v20.35H42.34v77.88H15.21z M18.75,96.58H38.8V18.62h12.53V4.37H6.18v14.26h12.57V96.58z
		"/>
</g>
</svg>
