<svg xmlns="http://www.w3.org/2000/svg" xml:space="preserve" viewBox="0 0 450 300"><path d="m49 214 10 63h4v-10l-8-39c-1-10 1-17 11-23 37-25 70-55 96-92 2-3 7-7 11-8 9-4 19-6 29-9-9 13-19 24-25 37-11 26-29 42-53 56-17 11-37 22-47 42-4 8-5 17-6 26-1 11 5 15 16 11 13-4 22-13 29-24 15-22 28-46 44-69 5-7 16-10 26-17l-16 33c-4 11 2 19 13 18 13-1 26-4 34-17 6-10 16-19 16-33 0-3 5-7 7-11l4 3-25 63 2 1 28-48 3 2-9 17-5 12c0 3 1 9 3 11 2 1 8 0 10-1 7-6 13-10 21-10 4 0 8-5 12 1 1 1 7 0 8-2l22-26 6-9 3 20c2 10 6 13 16 12 18-1 33-9 45-22 14-14 28-29 40-45 11-16 19-33 21-54 1-30-24-49-56-45-33 4-52 24-68 50-10 16-18 34-27 51l3 2c7-15 14-30 23-43 11-19 22-38 42-48 14-8 29-10 45-10 13 1 27 16 27 31 1 19-4 36-13 53-10 19-24 36-39 50-12 11-25 23-43 26-6 1-10-2-11-8-2-14-3-28 5-42l40-77 10-15-2-2-6 3c-12 18-25 35-35 53-7 13-11 28-17 42-1 3-2 7-5 8-15 8-25 21-35 34-3 4-8 6-13 9l-3-3 19-32c-9 3-10 6-20 23-5 9-12 16-19 24l-4-1c0-4-1-9 1-13 2-6 7-11 9-17 3-4 4-9 5-14l-3-1-12 9c2-17 9-30 20-41 7-6 12-14 16-21 2-3 1-8 0-13-3 1-8 1-11 3-12 9-13 23-19 35l-8 13c-4 4-9 7-14 0-2-2-11-2-15 0l-43 16c10-25 21-51 43-67 13-9 29-14 44-18 30-9 56-25 81-42l3-3c-28 13-54 27-81 38-28 12-57 21-87 31l16-36c7-18 1-36-15-41-14-5-26 1-37 9-19 13-34 29-47 47-13 16-20 36-25 56-1 3-4 7-7 9l-37 26c-9 7-15 16-15 28 1 12 6 17 19 17l25-2zm19-76 2-10c6-27 21-50 41-69 12-12 26-22 41-30 20-10 38 5 33 28-4 14-12 28-19 42-1 3-5 5-7 6l-91 33zm87-29 2 3c-27 37-58 68-101 90 2-12 4-20 4-29 1-21 10-34 31-40 22-6 43-16 64-24zm-1 65-2 6c-13 20-24 41-38 60-6 9-16 16-24 23-7 5-11 1-13-6-4-17 4-30 16-40l38-28 23-15zm-96-25 2 2c-2 12-5 23-6 35-1 13-6 21-20 22h-1c-7-2-15-3-20-7-3-3-1-13 1-18 10-17 29-23 44-34zm171 13-6 16c-9 15-20 27-40 26-9 0-12-4-10-11 3-15 11-27 25-35l6-2 25 6zm28-31c2-18 8-29 20-32 0 15-11 22-20 32zm77 3-5-2 24-47 4 2-23 47zm-23 28 3 3c-7 12-15 22-26 30l-2-2 25-31z"/></svg>